<svg width="123" height="111" viewBox="0 0 123 111" fill="none" xmlns="http://www.w3.org/2000/svg">
<path d="M67.2839 30.5C68.6179 30.5 69.578 31.7812 69.2035 33.0616L66.4151 42.593H73.466C75.1203 42.593 76.0593 44.4871 75.0578 45.8038L57.7239 68.5932C57.3959 69.0245 56.712 68.6988 56.8402 68.1722L60.5189 53.0581H55.1162C53.7982 53.0581 52.8405 51.8054 53.1863 50.5335L58.231 31.9754C58.4678 31.1045 59.2585 30.5 60.161 30.5H67.2839Z" fill="#FEE024" stroke="#3F496D" stroke-width="2.5"/>
<circle cx="17.5" cy="17.5" r="16" fill="#4DB4FE" stroke="#3F496D" stroke-width="3"/>
<circle cx="61.5" cy="93.5" r="16" fill="#FD5F33" stroke="#3F496D" stroke-width="3"/>
<circle cx="105.5" cy="17.5" r="16" fill="#5FEA3E" stroke="#3F496D" stroke-width="3"/>
<path d="M39.5 16C38.6716 16 38 16.6716 38 17.5C38 18.3284 38.6716 19 39.5 19L39.5 17.5L39.5 16ZM84.5607 18.5607C85.1464 17.9749 85.1464 17.0251 84.5607 16.4393L75.0147 6.8934C74.4289 6.30761 73.4792 6.30761 72.8934 6.8934C72.3076 7.47918 72.3076 8.42893 72.8934 9.01472L81.3787 17.5L72.8934 25.9853C72.3076 26.5711 72.3076 27.5208 72.8934 28.1066C73.4792 28.6924 74.4289 28.6924 75.0147 28.1066L84.5607 18.5607ZM39.5 17.5L39.5 19L83.5 19L83.5 17.5L83.5 16L39.5 16L39.5 17.5Z" fill="#3F496D"/>
<path d="M46.201 75.3551C46.6152 76.0726 47.5326 76.3184 48.25 75.9042C48.9674 75.4899 49.2133 74.5726 48.799 73.8551L47.5 74.6051L46.201 75.3551ZM25.8882 35.0511C25.088 34.8367 24.2655 35.3116 24.0511 36.1118L20.5571 49.1518C20.3426 49.952 20.8175 50.7745 21.6177 50.9889C22.4179 51.2033 23.2404 50.7284 23.4548 49.9282L26.5607 38.3371L38.1518 41.4429C38.952 41.6574 39.7745 41.1825 39.9889 40.3823C40.2033 39.5821 39.7284 38.7596 38.9282 38.5452L25.8882 35.0511ZM47.5 74.6051L48.799 73.8551L26.799 35.75L25.5 36.5L24.201 37.25L46.201 75.3551L47.5 74.6051Z" fill="#3F496D"/>
<path d="M74.201 73.8551C73.7867 74.5726 74.0326 75.4899 74.75 75.9042C75.4674 76.3184 76.3848 76.0726 76.799 75.3551L75.5 74.6051L74.201 73.8551ZM98.9489 36.1118C98.7345 35.3116 97.912 34.8367 97.1118 35.0511L84.0718 38.5452C83.2716 38.7596 82.7967 39.5821 83.0111 40.3823C83.2255 41.1825 84.048 41.6574 84.8482 41.4429L96.4393 38.3371L99.5452 49.9282C99.7596 50.7284 100.582 51.2033 101.382 50.9889C102.182 50.7745 102.657 49.952 102.443 49.1518L98.9489 36.1118ZM75.5 74.6051L76.799 75.3551L98.799 37.25L97.5 36.5L96.201 35.75L74.201 73.8551L75.5 74.6051Z" fill="#3F496D"/>
</svg>
